<svg width="376" height="175" viewBox="0 0 376 175" fill="none" xmlns="http://www.w3.org/2000/svg">
<path d="M350.258 25.5871C333.756 9.09746 311.816 0 288.499 0C265.174 0 243.238 9.09746 226.736 25.5871L126.168 126.109C115.802 136.466 102.032 142.153 87.3621 142.153C72.7353 142.153 58.9616 136.466 48.5999 126.066C38.1993 115.752 32.5096 101.946 32.5096 87.3217C32.5096 72.7017 38.1993 58.93 48.5999 48.5342C58.9616 38.1773 72.7353 32.4903 87.3621 32.4903C102.032 32.4903 115.806 38.173 126.168 48.5342L149.822 72.1824L171.303 70.1915L172.784 49.2353L149.125 25.5871C132.628 9.09746 110.688 0 87.3621 0C64.0407 0 42.0963 9.09746 25.599 25.5871C9.10166 42.0768 0 64.0068 0 87.3217C0 110.637 9.10166 132.558 25.599 149.061C42.0963 165.55 64.0364 174.643 87.3621 174.643C110.688 174.643 132.628 165.546 149.125 149.061L249.694 48.5342C260.06 38.1773 273.829 32.4903 288.504 32.4903C303.13 32.4903 316.908 38.173 327.266 48.5342C348.673 69.9361 348.673 104.707 327.266 126.109C316.904 136.466 303.13 142.153 288.504 142.153C273.829 142.153 260.06 136.466 249.694 126.109L222.584 99.0073L221.103 119.964L199.622 121.954L199.427 121.76L226.74 149.061C243.238 165.55 265.178 174.643 288.504 174.643C311.821 174.643 333.761 165.546 350.262 149.061C384.305 115.017 384.305 59.6225 350.258 25.5871Z" fill="black"/>
</svg>
