<?xml version="1.0" standalone="no"?>
<!DOCTYPE svg PUBLIC "-//W3C//DTD SVG 20010904//EN"
 "http://www.w3.org/TR/2001/REC-SVG-20010904/DTD/svg10.dtd">
<svg version="1.0" xmlns="http://www.w3.org/2000/svg"
 width="2500.000000pt" height="2500.000000pt" viewBox="0 0 2500.000000 2500.000000"
 preserveAspectRatio="xMidYMid meet">
<metadata>
Created by potrace 1.14, written by Peter Selinger 2001-2017
</metadata>
<g transform="translate(0.000000,2500.000000) scale(0.100000,-0.100000)"
fill="#000000" stroke="none">
<path d="M0 12500 l0 -12500 12500 0 12500 0 0 12500 0 12500 -12500 0 -12500
0 0 -12500z m13330 11775 l0 -105 210 0 210 0 0 -105 0 -105 105 0 105 0 0
-105 0 -105 105 0 105 0 0 -105 0 -105 105 0 105 0 0 -105 0 -105 100 0 100 0
0 -100 0 -100 105 0 105 0 0 -210 0 -210 105 0 105 0 0 -105 0 -105 935 0 935
0 0 -105 0 -105 315 0 315 0 0 -105 0 -105 210 0 210 0 0 -100 0 -100 100 0
100 0 0 -105 0 -105 105 0 105 0 0 -105 0 -105 105 0 105 0 0 -105 0 -105 105
0 105 0 0 -210 0 -210 105 0 105 0 0 -935 0 -935 -105 0 -105 0 0 -415 0 -415
-105 0 -105 0 0 -315 0 -315 -105 0 -105 0 0 -210 0 -210 -105 0 -105 0 0
-205 0 -205 -100 0 -100 0 0 -105 0 -105 -105 0 -105 0 0 -105 0 -105 -105 0
-105 0 0 -105 0 -105 -105 0 -105 0 0 -100 0 -100 -105 0 -105 0 0 -105 0
-105 -105 0 -105 0 0 -210 0 -210 105 0 105 0 0 -835 0 -835 -105 0 -105 0 0
-935 0 -935 -100 0 -100 0 0 -315 0 -315 -105 0 -105 0 0 -205 0 -205 -105 0
-105 0 0 -105 0 -105 -105 0 -105 0 0 -210 0 -210 -105 0 -105 0 0 -205 0
-205 -100 0 -100 0 0 -105 0 -105 -105 0 -105 0 0 -210 0 -210 -105 0 -105 0
0 -105 0 -105 105 0 105 0 0 -105 0 -105 205 0 205 0 0 -100 0 -100 210 0 210
0 0 -105 0 -105 105 0 105 0 0 -105 0 -105 205 0 205 0 0 -105 0 -105 105 0
105 0 0 -105 0 -105 105 0 105 0 0 -100 0 -100 210 0 210 0 0 -105 0 -105 105
0 105 0 0 -105 0 -105 415 0 415 0 0 -105 0 -105 210 0 210 0 0 -105 0 -105
205 0 205 0 0 -105 0 -105 210 0 210 0 0 -100 0 -100 210 0 210 0 0 -105 0
-105 100 0 100 0 0 -105 0 -105 105 0 105 0 0 -210 0 -210 105 0 105 0 0 -310
0 -310 105 0 105 0 0 -835 0 -835 105 0 105 0 0 -935 0 -935 100 0 100 0 0
-520 0 -520 -100 0 -100 0 0 520 0 520 -105 0 -105 0 0 935 0 935 -105 0 -105
0 0 835 0 835 -105 0 -105 0 0 310 0 310 -105 0 -105 0 0 210 0 210 -100 0
-100 0 0 105 0 105 -210 0 -210 0 0 105 0 105 -210 0 -210 0 0 100 0 100 -205
0 -205 0 0 105 0 105 -210 0 -210 0 0 105 0 105 -415 0 -415 0 0 105 0 105
-105 0 -105 0 0 105 0 105 -210 0 -210 0 0 105 0 105 -105 0 -105 0 0 100 0
100 -105 0 -105 0 0 105 0 105 -205 0 -205 0 0 105 0 105 -105 0 -105 0 0 105
0 105 -210 0 -210 0 0 105 0 105 -205 0 -205 0 0 100 0 100 -210 0 -210 0 0
-1245 0 -1245 -105 0 -105 0 0 -315 0 -315 -105 0 -105 0 0 -105 0 -105 -100
0 -100 0 0 -105 0 -105 -105 0 -105 0 0 -100 0 -100 -105 0 -105 0 0 -105 0
-105 -105 0 -105 0 0 -105 0 -105 -310 0 -310 0 0 105 0 105 -315 0 -315 0 0
105 0 105 -210 0 -210 0 0 100 0 100 -310 0 -310 0 0 105 0 105 -105 0 -105 0
0 105 0 105 -205 0 -205 0 0 105 0 105 -210 0 -210 0 0 105 0 105 -105 0 -105
0 0 105 0 105 -105 0 -105 0 0 205 0 205 -105 0 -105 0 0 315 0 315 -100 0
-100 0 0 830 0 830 -210 0 -210 0 0 -105 0 -105 -105 0 -105 0 0 -100 0 -100
-210 0 -210 0 0 -105 0 -105 -100 0 -100 0 0 -105 0 -105 -105 0 -105 0 0
-105 0 -105 -210 0 -210 0 0 -105 0 -105 -105 0 -105 0 0 -100 0 -100 -310 0
-310 0 0 -105 0 -105 -210 0 -210 0 0 -105 0 -105 -205 0 -205 0 0 -105 0
-105 -315 0 -315 0 0 -105 0 -105 -105 0 -105 0 0 -105 0 -105 -205 0 -205 0
0 -100 0 -100 -210 0 -210 0 0 -105 0 -105 -210 0 -210 0 0 -105 0 -105 -105
0 -105 0 0 -105 0 -105 -100 0 -100 0 0 -210 0 -210 -105 0 -105 0 0 -415 0
-415 -105 0 -105 0 0 -520 0 -520 -105 0 -105 0 0 -1145 0 -1145 -105 0 -105
0 0 -415 0 -415 -105 0 -105 0 0 415 0 415 105 0 105 0 0 1145 0 1145 105 0
105 0 0 520 0 520 105 0 105 0 0 415 0 415 105 0 105 0 0 210 0 210 105 0 105
0 0 105 0 105 100 0 100 0 0 105 0 105 105 0 105 0 0 105 0 105 210 0 210 0 0
100 0 100 210 0 210 0 0 105 0 105 205 0 205 0 0 105 0 105 105 0 105 0 0 105
0 105 315 0 315 0 0 105 0 105 205 0 205 0 0 105 0 105 210 0 210 0 0 100 0
100 310 0 310 0 0 105 0 105 105 0 105 0 0 105 0 105 210 0 210 0 0 105 0 105
105 0 105 0 0 105 0 105 100 0 100 0 0 100 0 100 210 0 210 0 0 105 0 105 105
0 105 0 0 105 0 105 105 0 105 0 0 1145 0 1145 -105 0 -105 0 0 210 0 210
-105 0 -105 0 0 210 0 210 -105 0 -105 0 0 205 0 205 -205 0 -205 0 0 105 0
105 -105 0 -105 0 0 105 0 105 -105 0 -105 0 0 520 0 520 -315 0 -315 0 0 105
0 105 -310 0 -310 0 0 105 0 105 -210 0 -210 0 0 105 0 105 -100 0 -100 0 0
100 0 100 -105 0 -105 0 0 105 0 105 -105 0 -105 0 0 315 0 315 -105 0 -105 0
0 415 0 415 105 0 105 0 0 310 0 310 105 0 105 0 0 210 0 210 105 0 105 0 0
210 0 210 100 0 100 0 0 105 0 105 105 0 105 0 0 100 0 100 105 0 105 0 0 105
0 105 105 0 105 0 0 835 0 835 105 0 105 0 0 520 0 520 100 0 100 0 0 210 0
210 105 0 105 0 0 105 0 105 105 0 105 0 0 100 0 100 105 0 105 0 0 105 0 105
210 0 210 0 0 105 0 105 100 0 100 0 0 105 0 105 105 0 105 0 0 105 0 105 210
0 210 0 0 105 0 105 310 0 310 0 0 100 0 100 105 0 105 0 0 105 0 105 210 0
210 0 0 105 0 105 210 0 210 0 0 105 0 105 310 0 310 0 0 105 0 105 415 0 415
0 0 105 0 105 520 0 520 0 0 -105z"/>
<path d="M12290 24065 l0 -105 -415 0 -415 0 0 -105 0 -105 -310 0 -310 0 0
-105 0 -105 -210 0 -210 0 0 -105 0 -105 -210 0 -210 0 0 -100 0 -100 -105 0
-105 0 0 -105 0 -105 -310 0 -310 0 0 -105 0 -105 -210 0 -210 0 0 -105 0
-105 -105 0 -105 0 0 -105 0 -105 -100 0 -100 0 0 -105 0 -105 -210 0 -210 0
0 -100 0 -100 -105 0 -105 0 0 -105 0 -105 -105 0 -105 0 0 -210 0 -210 -105
0 -105 0 0 -520 0 -520 -100 0 -100 0 0 -835 0 -835 -105 0 -105 0 0 -105 0
-105 -105 0 -105 0 0 -100 0 -100 -105 0 -105 0 0 -105 0 -105 -105 0 -105 0
0 -210 0 -210 -100 0 -100 0 0 -210 0 -210 -105 0 -105 0 0 -310 0 -310 -105
0 -105 0 0 -415 0 -415 105 0 105 0 0 -315 0 -315 105 0 105 0 0 -105 0 -105
100 0 100 0 0 -100 0 -100 210 0 210 0 0 -105 0 -105 310 0 310 0 0 -105 0
-105 420 0 420 0 0 105 0 105 -105 0 -105 0 0 105 0 105 -105 0 -105 0 0 625
0 625 105 0 105 0 0 100 0 100 310 0 310 0 0 -100 0 -100 105 0 105 0 0 -210
0 -210 105 0 105 0 0 -210 0 -210 105 0 105 0 0 1250 0 1250 105 0 105 0 0
105 0 105 105 0 105 0 0 105 0 105 100 0 100 0 0 105 0 105 105 0 105 0 0 100
0 100 105 0 105 0 0 105 0 105 210 0 210 0 0 105 0 105 205 0 205 0 0 105 0
105 210 0 210 0 0 105 0 105 210 0 210 0 0 105 0 105 205 0 205 0 0 100 0 100
315 0 315 0 0 105 0 105 415 0 415 0 0 105 0 105 730 0 730 0 0 -105 0 -105
310 0 310 0 0 -105 0 -105 105 0 105 0 0 -100 0 -100 105 0 105 0 0 -420 0
-420 105 0 105 0 0 -415 0 -415 105 0 105 0 0 -210 0 -210 100 0 100 0 0 -205
0 -205 -100 0 -100 0 0 100 0 100 -105 0 -105 0 0 105 0 105 -1040 0 -1040 0
0 -105 0 -105 -105 0 -105 0 0 -205 0 -205 1250 0 1250 0 0 -105 0 -105 100 0
100 0 0 -310 0 -310 105 0 105 0 0 100 0 100 105 0 105 0 0 105 0 105 105 0
105 0 0 105 0 105 105 0 105 0 0 105 0 105 105 0 105 0 0 205 0 205 100 0 100
0 0 210 0 210 105 0 105 0 0 315 0 315 105 0 105 0 0 415 0 415 105 0 105 0 0
935 0 935 -105 0 -105 0 0 210 0 210 -105 0 -105 0 0 105 0 105 -105 0 -105 0
0 105 0 105 -100 0 -100 0 0 105 0 105 -210 0 -210 0 0 100 0 100 -315 0 -315
0 0 105 0 105 -935 0 -935 0 0 105 0 105 -105 0 -105 0 0 105 0 105 -105 0
-105 0 0 210 0 210 -100 0 -100 0 0 100 0 100 -105 0 -105 0 0 105 0 105 -105
0 -105 0 0 105 0 105 -105 0 -105 0 0 105 0 105 -210 0 -210 0 0 105 0 105
-520 0 -520 0 0 -105z"/>
<path d="M10630 17185 l0 -105 -105 0 -105 0 0 -100 0 -100 -105 0 -105 0 0
-105 0 -105 -105 0 -105 0 0 -105 0 -105 105 0 105 0 0 105 0 105 1560 0 1560
0 0 205 0 205 -100 0 -100 0 0 105 0 105 -1250 0 -1250 0 0 -105z"/>
<path d="M11460 16045 l0 -205 210 0 210 0 0 -105 0 -105 -210 0 -210 0 0
-105 0 -105 520 0 520 0 0 415 0 415 -520 0 -520 0 0 -205z m830 -105 l0 -100
-105 0 -105 0 0 100 0 100 105 0 105 0 0 -100z"/>
<path d="M15000 16045 l0 -205 210 0 210 0 0 -105 0 -105 -210 0 -210 0 0
-105 0 -105 520 0 520 0 0 415 0 415 -520 0 -520 0 0 -205z m830 -105 l0 -100
-100 0 -100 0 0 100 0 100 100 0 100 0 0 -100z"/>
<path d="M12920 13645 l0 -105 310 0 310 0 0 105 0 105 -310 0 -310 0 0 -105z"/>
<path d="M14170 13645 l0 -105 205 0 205 0 0 105 0 105 -205 0 -205 0 0 -105z"/>
<path d="M11460 12605 l0 -105 105 0 105 0 0 -205 0 -205 205 0 205 0 0 -105
0 -105 210 0 210 0 0 105 0 105 -210 0 -210 0 0 100 0 100 1460 0 1460 0 0
-100 0 -100 -210 0 -210 0 0 -105 0 -105 210 0 210 0 0 105 0 105 105 0 105 0
0 100 0 100 210 0 210 0 0 105 0 105 100 0 100 0 0 105 0 105 -205 0 -205 0 0
-105 0 -105 -1770 0 -1770 0 0 105 0 105 -210 0 -210 0 0 -105z"/>
</g>
</svg>
